HIERARCHY
ROOT Hips
{
	OFFSET -0.001795 -0.223333 0.028219
	CHANNELS 6 Xposition Yposition Zposition Zrotation Yrotation Xrotation 
	JOINT LeftUpLeg
	{
		OFFSET 0.069520 -0.091406 -0.006815
		CHANNELS 3 Zrotation Yrotation Xrotation
		JOINT LeftLeg
		{
			OFFSET 0.034277 -0.375199 -0.004496
			CHANNELS 3 Zrotation Yrotation Xrotation
			JOINT LeftFoot
			{
				OFFSET -0.013596 -0.397961 -0.043693
				CHANNELS 3 Zrotation Yrotation Xrotation
				JOINT LeftToe
				{
					OFFSET 0.026358 -0.055791 0.119288
					CHANNELS 3 Zrotation Yrotation Xrotation
					End Site
					{
						OFFSET 0.000000 0.000000 0.000000
					}
				}
			}
		}
	}
	JOINT RightUpLeg
	{
		OFFSET -0.067670 -0.090522 -0.004320
		CHANNELS 3 Zrotation Yrotation Xrotation
		JOINT RightLeg
		{
			OFFSET -0.038290 -0.382569 -0.008850
			CHANNELS 3 Zrotation Yrotation Xrotation
			JOINT RightFoot
			{
				OFFSET 0.015774 -0.398415 -0.042312
				CHANNELS 3 Zrotation Yrotation Xrotation
				JOINT RightToe
				{
					OFFSET -0.025372 -0.048144 0.123348
					CHANNELS 3 Zrotation Yrotation Xrotation
					End Site
					{
						OFFSET 0.000000 0.000000 0.000000
					}
				}
			}
		}
	}
	JOINT Spine
	{
		OFFSET -0.002533 0.108963 -0.026696
		CHANNELS 3 Zrotation Yrotation Xrotation
		JOINT Spine1
		{
			OFFSET 0.005487 0.135180 0.001092
			CHANNELS 3 Zrotation Yrotation Xrotation
			JOINT Spine2
			{
				OFFSET 0.001457 0.052922 0.025425
				CHANNELS 3 Zrotation Yrotation Xrotation
				JOINT Neck
				{
					OFFSET -0.002778 0.213870 -0.042857
					CHANNELS 3 Zrotation Yrotation Xrotation
					JOINT Head
					{
						OFFSET 0.005152 0.064970 0.051349
						CHANNELS 3 Zrotation Yrotation Xrotation
						End Site
						{
							OFFSET 0.000000 0.000000 0.000000
						}
					}
				}
				JOINT LeftShoulder
				{
					OFFSET 0.078845 0.121749 -0.034090
					CHANNELS 3 Zrotation Yrotation Xrotation
					JOINT LeftArm
					{
						OFFSET 0.090977 0.030469 -0.008868
						CHANNELS 3 Zrotation Yrotation Xrotation
						JOINT LeftForeArm
						{
							OFFSET 0.259612 -0.012772 -0.027456
							CHANNELS 3 Zrotation Yrotation Xrotation
							JOINT LeftHand
							{
								OFFSET 0.249234 0.008986 -0.001171
								CHANNELS 3 Zrotation Yrotation Xrotation
								End Site
								{
									OFFSET 0.000000 0.000000 0.000000
								}
							}
						}
					}
				}
				JOINT RightShoulder
				{
					OFFSET -0.081759 0.118833 -0.038615
					CHANNELS 3 Zrotation Yrotation Xrotation
					JOINT RightArm
					{
						OFFSET -0.096012 0.032551 -0.009143
						CHANNELS 3 Zrotation Yrotation Xrotation
						JOINT RightForeArm
						{
							OFFSET -0.253742 -0.013329 -0.021401
							CHANNELS 3 Zrotation Yrotation Xrotation
							JOINT RightHand
							{
								OFFSET -0.255298 0.007772 -0.005559
								CHANNELS 3 Zrotation Yrotation Xrotation
								End Site
								{
									OFFSET 0.000000 0.000000 0.000000
								}
							}
						}
					}
				}
			}
		}
	}
}
MOTION
Frames: 13
Frame Time: 0.050000
0.000000 0.936709 0.000000 1.187536 -7.932943 -4.019535 -1.307924 -1.084965 -10.817862 -2.203095 0.296968 13.990768 3.432771 8.146652 4.607611 0.000000 0.000000 0.000000 -2.824715 0.502371 -5.673326 -0.258058 4.223584 47.252041 2.126531 1.969499 5.133222 0.000000 0.000000 0.000000 1.990780 -0.283855 5.375764 -0.460813 0.209919 -4.940373 -0.741525 2.087793 10.565604 4.428255 -1.499686 -20.073933 0.000000 0.000000 0.000000 -17.178403 -19.392027 9.293466 -44.135649 -33.287965 6.273953 5.003429 -29.085744 0.006560 0.000000 0.000000 0.000000 19.501221 11.360532 3.875001 51.701778 21.119063 3.550432 -5.663488 37.192550 -0.602130 0.000000 0.000000 0.000000 
0.008269 0.939607 0.029151 0.194727 -7.611040 -4.076359 -0.904695 -0.868897 -8.851915 -2.492517 0.358336 14.236057 2.501642 6.122540 3.303348 0.000000 0.000000 0.000000 -3.412630 0.966836 -11.785874 2.815755 3.318112 56.525522 3.013521 0.420471 11.653519 0.000000 0.000000 0.000000 2.001744 -0.298032 5.645879 0.144513 -0.047254 -4.687653 -1.552539 0.598769 10.822706 4.926359 -1.672928 -22.477177 0.000000 0.000000 0.000000 -16.213437 -19.542434 9.508965 -42.148434 -36.674495 7.107334 7.267510 -27.672528 -0.497469 0.000000 0.000000 0.000000 18.014812 9.763612 2.752357 54.056270 20.270207 3.387845 -3.230829 37.496576 0.062995 0.000000 0.000000 0.000000 
0.013992 0.942826 0.056568 -0.349000 -7.416978 -4.714821 -1.798297 -0.586316 -5.267843 -0.760569 -0.091608 13.266770 2.301848 5.223879 1.136120 0.000000 0.000000 0.000000 -2.878232 1.479234 -16.952121 3.804242 2.823042 59.462237 1.830550 -0.857371 9.553964 0.000000 0.000000 0.000000 2.345807 -0.391074 7.237728 0.678582 -0.260511 -5.762025 -2.605310 0.950474 11.128768 4.252080 -1.345246 -21.309068 0.000000 0.000000 0.000000 -14.583293 -21.236834 9.911566 -40.160006 -40.615963 8.165663 9.099150 -24.393162 -0.888564 0.000000 0.000000 0.000000 15.570168 10.033591 3.120541 54.570694 19.912062 3.157313 -3.056060 38.075170 0.199316 0.000000 0.000000 0.000000 
0.017150 0.946198 0.083598 -1.287842 -7.205037 -4.787617 -1.241525 -0.239865 -2.187894 -0.403602 -0.175399 11.838398 2.470012 5.411141 0.425994 0.000000 0.000000 0.000000 -1.710886 2.026016 -20.630045 3.134315 2.754366 55.443057 1.221731 -0.191423 5.598669 0.000000 0.000000 0.000000 2.580718 -0.420093 7.499929 0.777658 -0.323844 -4.383765 -2.714924 -0.651290 10.219881 3.385689 -0.881708 -22.550644 0.000000 0.000000 0.000000 -13.727563 -21.156323 9.971190 -38.496602 -43.719936 8.944764 12.982179 -22.153262 -1.510148 0.000000 0.000000 0.000000 15.344746 9.899243 2.738643 53.453225 19.757987 3.105852 -4.365243 37.288510 -0.402424 0.000000 0.000000 0.000000 
0.018161 0.948279 0.111417 -1.965286 -6.807677 -4.603638 -1.126858 0.021212 0.265814 0.412743 -0.354579 10.857563 2.237803 4.519215 -1.048775 0.000000 0.000000 0.000000 -0.708875 2.515584 -23.383995 1.320263 2.914158 47.234990 1.751044 1.198996 5.190198 0.000000 0.000000 0.000000 2.047646 -0.447726 8.563604 1.247439 -0.492244 -5.666632 -3.175017 -1.147040 10.837350 4.314464 -1.460791 -22.450311 0.000000 0.000000 0.000000 -12.495706 -22.286449 10.346680 -35.708047 -47.253432 9.280179 15.038218 -19.380286 -1.652757 0.000000 0.000000 0.000000 15.029112 9.375351 2.463372 52.568570 19.331590 2.775233 -3.913661 37.552756 -0.280270 0.000000 0.000000 0.000000 
0.017147 0.948420 0.140878 -2.298435 -5.894869 -4.421094 -0.682259 0.215324 2.122508 0.406334 -0.368297 10.741098 2.313377 4.425265 -1.844836 0.000000 0.000000 0.000000 0.240118 2.801374 -24.491284 -0.536631 2.621675 36.570993 2.252624 1.753703 6.176520 0.000000 0.000000 0.000000 1.331711 -0.447126 9.481892 1.478728 -0.581161 -5.443491 -2.836536 -2.387620 10.011591 3.611012 -1.002181 -23.872681 0.000000 0.000000 0.000000 -11.720480 -22.133841 10.240100 -35.841699 -50.803484 10.767479 17.760092 -15.514683 -1.631102 0.000000 0.000000 0.000000 13.553670 9.776301 2.558182 52.988156 18.712275 2.587480 -4.763726 37.967317 -0.675285 0.000000 0.000000 0.000000 
0.013959 0.947243 0.172560 -2.618887 -5.174224 -3.480718 -0.670659 0.370443 3.626057 1.305396 -0.515984 9.065943 1.908705 3.370705 -2.235170 0.000000 0.000000 0.000000 0.641295 2.694344 -23.341886 -1.555368 1.848650 24.427024 3.527653 4.137312 6.931657 0.000000 0.000000 0.000000 0.788388 -0.402852 9.158905 1.211337 -0.451118 -5.486358 -2.736650 -3.286016 9.637976 3.809460 -1.097162 -24.558835 0.000000 0.000000 0.000000 -10.811660 -22.428923 10.300256 -35.020736 -53.046352 11.360978 18.424006 -13.011272 -1.402342 0.000000 0.000000 0.000000 12.926886 9.795637 2.500210 53.610510 18.345222 2.488358 -5.170420 37.331783 -0.849720 0.000000 0.000000 0.000000 
0.007894 0.944243 0.206574 -3.018427 -3.901507 -2.256884 0.066934 0.490443 5.146668 1.527699 -0.526932 7.959060 1.856179 2.708026 -3.564156 0.000000 0.000000 0.000000 1.041198 2.602743 -22.467797 -0.720253 0.874945 14.958855 4.545376 5.679479 8.168787 0.000000 0.000000 0.000000 0.362994 -0.361071 8.607573 1.131216 -0.408872 -4.947420 -3.308474 -4.393209 8.662062 3.795896 -1.163739 -23.805172 0.000000 0.000000 0.000000 -9.043067 -22.636469 10.073868 -35.756662 -55.316817 12.763225 18.268633 -10.429444 -1.076738 0.000000 0.000000 0.000000 13.355311 9.502326 2.263563 54.055389 18.075412 2.520319 -5.969427 36.684940 -1.131828 0.000000 0.000000 0.000000 
-0.001269 0.940416 0.242324 -3.392720 -3.038943 -1.359134 1.351844 0.559862 6.784321 1.538621 -0.492783 6.996804 1.318830 1.329356 -3.753652 0.000000 0.000000 0.000000 2.243242 2.621508 -21.269293 -0.417227 0.512857 9.888434 5.478757 6.446229 10.215974 0.000000 0.000000 0.000000 0.192840 -0.335017 8.075834 1.254033 -0.431531 -5.437463 -4.351319 -4.349407 8.694142 5.375389 -1.850733 -24.303780 0.000000 0.000000 0.000000 -9.658608 -23.963203 10.725358 -34.580181 -55.877391 12.340459 17.019818 -9.495304 -0.895181 0.000000 0.000000 0.000000 14.916985 9.348406 2.238752 53.541623 18.133558 2.569413 -6.616009 35.568716 -1.191947 0.000000 0.000000 0.000000 
-0.012941 0.936344 0.279063 -3.623991 -2.142660 -0.756728 2.556699 0.512608 7.413821 1.472457 -0.562938 8.757622 1.079841 0.496502 -4.233651 0.000000 0.000000 0.000000 3.717710 2.769985 -20.802469 -0.621381 0.571912 10.495044 5.170964 5.340804 11.170215 0.000000 0.000000 0.000000 -0.456950 -0.292601 8.136540 0.927885 -0.294765 -4.883903 -4.501974 -4.705442 7.790766 6.928652 -2.588201 -24.364491 0.000000 0.000000 0.000000 -9.880837 -24.268681 10.889837 -35.658775 -56.355589 13.088191 17.121234 -9.024698 -0.853028 0.000000 0.000000 0.000000 15.695428 9.872708 2.471384 53.460300 19.119161 3.138842 -8.851485 33.344320 -1.721531 0.000000 0.000000 0.000000 
-0.025726 0.933710 0.316109 -3.958122 -1.201080 -0.360467 4.501066 0.318959 6.837422 0.464911 -0.548095 13.327748 0.659299 -0.908097 -4.915749 0.000000 0.000000 0.000000 5.434215 2.945954 -20.316348 -0.725988 0.684907 12.596084 4.136905 3.908194 10.182101 0.000000 0.000000 0.000000 -0.762446 -0.283672 8.426384 0.917722 -0.273067 -4.982065 -4.939480 -4.453352 7.359593 7.801850 -2.891314 -24.536374 0.000000 0.000000 0.000000 -10.540606 -25.150920 11.303672 -36.413455 -54.778503 12.758162 16.718750 -10.105015 -0.951917 0.000000 0.000000 0.000000 16.561738 10.133682 2.755737 53.350994 20.225408 3.690966 -10.944836 31.486477 -2.084657 0.000000 0.000000 0.000000 
-0.038155 0.934498 0.352736 -4.397232 -1.028796 0.505556 6.182126 0.115144 4.997691 0.099592 -0.633168 18.299645 0.047750 -1.606222 -3.471303 0.000000 0.000000 0.000000 6.645635 2.964387 -19.376074 -0.322305 0.663786 14.110816 3.693935 3.763495 8.815830 0.000000 0.000000 0.000000 -0.551472 -0.274544 7.673293 1.166576 -0.413550 -3.947268 -5.636798 -4.064060 6.293841 8.132017 -3.017622 -23.880178 0.000000 0.000000 0.000000 -12.295865 -24.230585 11.101275 -38.438386 -51.982442 12.530153 15.224110 -11.670609 -0.984055 0.000000 0.000000 0.000000 17.181845 11.460089 3.566226 52.606222 22.276586 4.662423 -13.664635 29.103365 -2.512282 0.000000 0.000000 0.000000 
-0.049904 0.937700 0.388392 -5.026577 -1.214784 1.150434 8.170824 -0.069260 1.740018 -0.270124 -0.771337 26.952072 -1.270192 -2.460715 0.521840 0.000000 0.000000 0.000000 8.474076 2.966000 -17.935255 -0.909562 0.813284 14.275944 3.605687 4.156219 7.758240 0.000000 0.000000 0.000000 0.302911 -0.304819 6.813545 0.892209 -0.280340 -4.368655 -5.904229 -2.480059 6.600593 8.090465 -2.766399 -24.285170 0.000000 0.000000 0.000000 -14.293219 -23.888502 10.996514 -39.922453 -46.270748 10.712425 14.916490 -16.197992 -1.383805 0.000000 0.000000 0.000000 16.180734 11.701244 4.100489 52.480920 23.915183 5.293771 -15.104356 27.339258 -2.529723 0.000000 0.000000 0.000000 
